<svg width="115" height="128" fill="none" xmlns="http://www.w3.org/2000/svg"><g clip-path="url(#clip0)"><path d="M40.662 108.829v-.023c-.142.01-.285.023-.43.023h.43zM53.379 87.664c0 .392.142.753.427 1.082.284.29.641.431 1.07.431.406 0 .753-.141 1.04-.431a1.49 1.49 0 00.458-1.082c0-.434-.153-.781-.458-1.048a1.307 1.307 0 00-1.04-.465c-.429 0-.786.154-1.07.465a1.436 1.436 0 00-.427 1.048zM50.566 105.555c-.57.619-1.283.927-2.139.927-1.282 0-2.141-.554-2.568-1.667-.245-.679-.367-1.782-.367-3.306V92.3h-2.537v11.248c0 .07-.003.141-.008.209.753 2.164 1.738 3.465 2.594 4.239a5.153 5.153 0 002.86.836c1.47 0 2.705-.497 3.711-1.472a11.807 11.807 0 01-1.238-2.197 4.782 4.782 0 01-.308.392zM50.75 89.177c.405 0 .752-.141 1.039-.431.305-.308.458-.666.458-1.08 0-.433-.153-.783-.458-1.05a1.368 1.368 0 00-1.04-.465c-.447 0-.807.154-1.07.465a1.437 1.437 0 00-.427 1.05c0 .39.142.75.427 1.08.287.29.641.431 1.07.431zM59.096 105.586c-.53.599-1.243.896-2.14.896-.857 0-1.56-.308-2.109-.927-.55-.62-.825-1.37-.825-2.256V92.3h-2.599V103.3c0 .196-.018.387-.046.573.605 1.696 1.352 2.851 2.064 3.63.96.88 2.149 1.325 3.576 1.325 1.459 0 2.672-.473 3.652-1.409a11.504 11.504 0 01-1.275-2.237 2.71 2.71 0 01-.298.405zM52.738 85.378c.406 0 .752-.144 1.04-.434.304-.308.46-.666.46-1.08 0-.41-.153-.762-.46-1.05-.265-.308-.611-.465-1.04-.465-.427 0-.784.154-1.069.465-.286.288-.429.64-.429 1.05 0 .39.142.753.43 1.08.281.293.638.434 1.068.434zM66.005 108.829v-.021c-.201.008-.4.021-.612.021h.612z" fill="#fff"/><path d="M42.47 105.145c-.09.138-.194.277-.313.41-.55.619-1.192.928-1.926.928h-4.066l.09-.094c1.633-1.647 2.447-3.625 2.447-5.933 0-2.346-.837-4.304-2.508-5.869-1.67-1.586-3.66-2.38-5.964-2.38h-9.506v2.626h5.684c2.63 0 4.016.01 4.159.031 1.528.144 2.772.659 3.731 1.544 1.161 1.093 1.72 2.522 1.681 4.294-.041 1.793-.62 3.222-1.74 4.296-.51.494-1.327.886-2.447 1.174a7.794 7.794 0 00.184-1.668c0-2.203-.807-4.058-2.415-5.56-1.632-1.524-3.538-2.287-5.718-2.287-2.162 0-4.047.766-5.656 2.286-1.59 1.527-2.384 3.379-2.384 5.561 0 .722.072 1.383.214 1.979H12.351V83.588H9.84v25.244h30.392c.145 0 .287-.013.43-.024 1.138-.099 2.154-.585 3.043-1.468a11.606 11.606 0 01-1.236-2.195zm-13.186 1.306a8.859 8.859 0 01-.856.032H18.46c-.245-.701-.367-1.359-.367-1.979-.018-1.523.55-2.843 1.712-3.956 1.14-1.09 2.488-1.636 4.037-1.636 1.59 0 2.956.546 4.096 1.636 1.182 1.092 1.753 2.409 1.712 3.956a7.215 7.215 0 01-.367 1.947zM72.245 111.207c-.448 0-.807.154-1.068.465-.285.29-.427.638-.427 1.051 0 .392.142.752.427 1.082.284.287.641.431 1.068.431.408 0 .752-.147 1.04-.431a1.5 1.5 0 00.457-1.082c0-.413-.153-.761-.458-1.051a1.373 1.373 0 00-1.04-.465zM64.783 108.829h.46c-.155 0-.307-.013-.46-.026v.026zM68.117 111.207c-.43 0-.787.154-1.071.465-.285.29-.427.638-.427 1.051 0 .392.142.752.427 1.082.284.287.641.431 1.07.431.406 0 .753-.147 1.04-.431a1.5 1.5 0 00.458-1.082c0-.413-.153-.761-.458-1.051a1.312 1.312 0 00-1.04-.465z" fill="#fff"/><path d="M69.006 105.158a3.187 3.187 0 01-.4.551c-.51.515-1.58.773-3.212.773h-.153c-.732 0-1.376-.308-1.927-.927-.53-.596-.794-1.307-.794-2.133V92.3h-2.63V103.3c0 .17-.01.335-.03.497.612 1.743 1.375 2.919 2.094 3.711.84.768 1.785 1.199 2.827 1.299.15.013.302.023.46.023h.153c.212 0 .41-.013.612-.021 1.844-.091 3.251-.58 4.216-1.484a11.737 11.737 0 01-1.216-2.166zM72.793 105.678c-.55-.536-.825-1.278-.825-2.224V92.611h-2.536v10.843c0 .057-.006.109-.008.164.752 2.229 1.75 3.562 2.617 4.354.972.57 2.177.857 3.626.857h1.926v-2.347h-1.926c-1.384 0-2.34-.269-2.874-.804zM87.93 106.482c-2.55 0-4.332-1.244-5.35-3.739-.978-2.41-.57-4.542 1.222-6.395 1.324-1.34 2.855-1.918 4.585-1.73 1.65.144 3.109.925 4.373 2.347l2.018-1.388c-1.59-2.266-3.843-3.4-6.758-3.4-2.345 0-4.331.792-5.96 2.378-1.65 1.65-2.478 3.648-2.478 5.995 0 1.605.383 3.042 1.146 4.315a8.612 8.612 0 001.267 1.617h-3.179v2.347h17.857v-2.347H87.93z" fill="#fff"/><path d="M78.817 106.482h-1.223v2.347h1.223v-2.347z" fill="#fff"/><path d="M30.728.98l-2.434 38.98-2.71-38.627c-.039-.541-.5-.97-1.063-.972-.553 0-1.008.407-1.06.948l-2.648 28.67-2.317-18.473a1.053 1.053 0 00-1.006-.917 1.065 1.065 0 00-1.09.82l-2.782 12.507-2.232-9.114a1.044 1.044 0 00-.86-.79 1.076 1.076 0 00-1.074.476L6.32 19.383H1.065c-.587 0-1.065.47-1.065 1.045 0 .58.478 1.045 1.065 1.045h5.842c.37 0 .706-.18.9-.486l2.103-3.285 2.723 11.135c.116.473.54.805 1.045.805.499-.002.92-.345 1.026-.82l2.442-10.97 2.772 22.079c.067.54.504.92 1.07.917a1.051 1.051 0 001.043-.949l2.345-25.361 2.915 41.569c.039.548.502.974 1.065.974.561 0 1.024-.433 1.055-.98l2.279-36.48 2.208 42.232a1.06 1.06 0 001.063.996c.559 0 1.024-.429 1.063-.977l2.733-39.798 2.824 50.904c.029.554.497.988 1.063.988.564 0 1.03-.434 1.06-.988l2.372-43.521 2.47 43.137c.03.554.499.988 1.065.988a1.057 1.057 0 001.06-.99l2.14-39.83 2.756 39.782c.039.549.507.975 1.065.975.559 0 1.025-.429 1.058-.978l2.594-39.846 2.656 41.827c.036.552.499.98 1.063.98a1.06 1.06 0 001.063-.982l2.366-39.876 2.49 32.702c.039.544.502.967 1.06.97.556 0 1.014-.413 1.058-.957l2.54-29.083 2.335 27.732c.041.536.489.949 1.03.96a1.024 1.024 0 001.083-.915l2.495-19.466 2.568 18.31c.075.513.502.89 1.024.902.533.024.978-.334 1.076-.85l2.542-13.1 2.454 11.504c.104.478.536.829 1.043.831.499 0 .925-.334 1.037-.813l2.687-11.537 2.14 8.417c.112.445.503.766.968.792.463.018.89-.246 1.055-.669l3.331-8.459h10.489c.587 0 1.066-.47 1.066-1.048 0-.575-.479-1.045-1.066-1.045h-11.218c-.437 0-.838.271-.993.669l-2.385 6.052-2.407-9.452a1.055 1.055 0 00-1.04-.79 1.052 1.052 0 00-1.027.81l-2.596 11.146-2.547-11.95a1.068 1.068 0 00-1.053-.831 1.065 1.065 0 00-1.037.85L85.31 58.301l-2.78-19.85a1.063 1.063 0 00-1.06-.902 1.064 1.064 0 00-1.052.917l-2.23 17.383-2.531-30.117a1.06 1.06 0 00-1.063-.96c-.556 0-1.009.408-1.06.952l-2.489 28.48-2.684-35.382a1.063 1.063 0 00-1.068-.967 1.057 1.057 0 00-1.055.986l-2.273 38.263-2.607-41.065a1.062 1.062 0 00-1.063-.98c-.558 0-1.026.431-1.063.98l-2.637 40.571-2.863-41.245a1.059 1.059 0 00-1.068-.975 1.053 1.053 0 00-1.053.988l-2.04 37.947-2.462-43.009a1.06 1.06 0 00-1.063-.988 1.063 1.063 0 00-1.063.99l-2.348 43.208-2.7-48.68a1.065 1.065 0 00-1.06-.992c-.57.007-1.027.426-1.063.977l-2.705 39.345L32.85.993A1.055 1.055 0 0031.788 0c-.559 0-1.027.431-1.06.98z" fill="url(#paint0_linear)"/><path d="M10.954 115.425c1.826 0 3.155.026 3.983.081l-.052.938h-3.734c-.53 0-.794.298-.794.896v2.033h3.998v.962h-3.998v2.569c0 .321.065.551.191.695.127.144.329.214.603.214h3.732l.051.925c-.83.053-2.157.079-3.982.079-.549 0-.983-.146-1.306-.442-.321-.295-.484-.69-.484-1.191v-6.142c0-.499.16-.893.484-1.183.326-.288.76-.434 1.308-.434zM21.028 118.036c1.182 0 1.774.606 1.774 1.818v4.95H21.65v-4.628c0-.437-.073-.742-.212-.91-.14-.169-.383-.256-.727-.256-.362 0-.722.081-1.078.243-.357.16-.84.426-1.451.803v4.748h-1.138v-6.606h.965l.08 1.042c1.044-.805 2.022-1.204 2.94-1.204zM26.47 118.198v6.771c0 .525-.115 1.014-.34 1.471a3.074 3.074 0 01-.933 1.124l-.636-.507a3.22 3.22 0 00.752-2.088v-6.771h1.156zm-.834-2.812h.53c.228 0 .344.117.344.347v.776c0 .233-.113.348-.344.348h-.53c-.238 0-.357-.118-.357-.348v-.776c0-.23.12-.347.357-.347zM31.777 118.036c1.13 0 1.927.264 2.39.789.463.528.695 1.419.695 2.676 0 1.275-.232 2.174-.695 2.694-.463.523-1.26.781-2.39.781-1.12 0-1.913-.261-2.376-.789-.463-.525-.696-1.421-.696-2.686 0-1.257.233-2.148.696-2.676.465-.525 1.257-.789 2.376-.789zm0 .974c-.713 0-1.207.178-1.476.531-.27.353-.404 1.006-.404 1.96s.135 1.61.404 1.965c.269.358.763.533 1.476.533.714 0 1.208-.178 1.482-.533.274-.355.411-1.014.411-1.965 0-.954-.137-1.607-.406-1.96-.266-.353-.763-.531-1.487-.531zM42.86 118.195l-2.623 6.972c-.59 1.56-1.544 2.37-2.86 2.436l-.12-.764c.955-.295 1.594-.878 1.92-1.75l.106-.283h-.267c-.194 0-.325-.096-.395-.292l-2.385-6.317h1.234l1.735 4.924c.124.358.202.624.238.805h.184c.054-.134.145-.403.279-.805l1.707-4.924h1.246v-.002zM50.642 115.266c.97 0 1.888.094 2.754.282l-.08.867a55.44 55.44 0 00-2.623-.065c-.318 0-.556.005-.713.013a2.816 2.816 0 00-.51.086c-.18.05-.31.126-.385.228a1.342 1.342 0 00-.186.415c-.05.175-.073.4-.073.677 0 .491.088.842.264 1.056.176.214.476.374.9.481l1.893.47c.688.18 1.171.473 1.448.889.28.415.42.998.42 1.745 0 1.035-.231 1.72-.689 2.054-.46.335-1.267.502-2.423.502-.98 0-1.937-.084-2.873-.256l.08-.883c1.314.044 2.258.068 2.832.068.742-.008 1.239-.108 1.49-.296.25-.185.377-.59.377-1.215 0-.517-.085-.875-.259-1.077-.17-.198-.473-.352-.905-.459l-1.919-.497c-.662-.162-1.132-.449-1.409-.87-.28-.418-.416-.998-.416-1.738 0-.546.054-.98.165-1.312.109-.332.303-.58.574-.75.275-.17.577-.282.913-.334a9.073 9.073 0 011.353-.081zM58.97 118.036c.758 0 1.322.159 1.689.475.364.316.548.863.548 1.639v4.654h-.9l-.132-1.082a4.634 4.634 0 01-1.184.844 3.32 3.32 0 01-1.516.361c-.592 0-1.065-.16-1.422-.484-.357-.321-.535-.773-.535-1.364v-.724c0-.517.16-.917.475-1.197.319-.279.763-.42 1.337-.42h2.729v-.588c0-.421-.096-.716-.285-.884-.188-.169-.54-.256-1.052-.256-.644 0-1.58.058-2.806.173l-.106-.855c1.197-.196 2.25-.292 3.16-.292zm1.086 3.572H57.53c-.567 0-.849.303-.849.912v.429c0 .347.08.595.238.747.158.152.42.235.781.243.354 0 .748-.086 1.18-.253a3.8 3.8 0 001.176-.737v-1.341zM69.202 124.804h-.912l-.08-.949c-.98.75-1.92 1.124-2.82 1.124-1.192 0-1.787-.606-1.787-1.819v-4.962h1.138v4.641c0 .418.078.716.238.883.158.17.427.254.81.254.326 0 .66-.073.998-.22.341-.146.768-.392 1.277-.729v-4.829h1.138v6.606zM77.292 124.804h-.887l-.106-.949c-.813.74-1.676 1.111-2.594 1.111-.805 0-1.386-.288-1.748-.862-.362-.575-.541-1.453-.541-2.629 0-1.26.197-2.149.587-2.666.393-.517 1.022-.776 1.888-.776.838 0 1.608.201 2.317.604a14.324 14.324 0 01-.052-1.299v-2.033h1.138v9.499h-.002zm-3.137-5.765c-.582 0-.99.17-1.224.502-.235.334-.351.977-.351 1.921 0 .953.114 1.607.344 1.965.23.358.618.535 1.166.535.344 0 .657-.062.931-.193.28-.131.657-.368 1.135-.716V119.4c-.869-.241-1.533-.361-2.001-.361zM80.165 115.386h.53c.239 0 .358.115.358.347v.776c0 .233-.12.348-.357.348h-.53c-.238 0-.357-.115-.357-.348v-.776c0-.23.119-.347.356-.347zm.82 9.418H79.86v-6.609h1.125v6.609z" fill="#fff"/></g><defs><linearGradient id="paint0_linear" x1="0" y1="37.749" x2="115.001" y2="37.749" gradientUnits="userSpaceOnUse"><stop stop-color="#00AE65"/><stop offset=".185" stop-color="#0065BD"/><stop offset=".374" stop-color="#9D2480"/><stop offset=".426" stop-color="#AA2371"/><stop offset=".542" stop-color="#C32151"/><stop offset=".567" stop-color="#C53654"/><stop offset=".664" stop-color="#E75448"/><stop offset=".742" stop-color="#F17C4D"/><stop offset=".823" stop-color="#D18336"/><stop offset=".862" stop-color="#FFA22F"/><stop offset="1" stop-color="#FDC82F"/></linearGradient><clipPath id="clip0"><path fill="#fff" d="M0 0h115v127.603H0z"/></clipPath></defs></svg>